<?xml version="1.0" encoding="UTF-8" standalone="no"?>
<svg width="59px" height="65px" viewBox="0 0 59 65" version="1.1" xmlns="http://www.w3.org/2000/svg" xmlns:xlink="http://www.w3.org/1999/xlink" xmlns:sketch="http://www.bohemiancoding.com/sketch/ns">
    <!-- Generator: Sketch 3.0.3 (7891) - http://www.bohemiancoding.com/sketch -->
    <title>Christmas-tree</title>
    <desc>Created with Sketch.</desc>
    <defs></defs>
    <g id="Page-1" stroke="none" stroke-width="1" fill="#08aa05" fill-rule="evenodd" sketch:type="MSPage">
        <path d="M55,44.6 C47.2,43.1 45.5,39.9 44.5,38.9 C48,37.2 50.8,34.6 50.8,31.7 C45.4,31.6 40.1,28.7 37.2,25.2 C41.1,24 43.8,22 43.8,19.2 C28.1,14 31.2,1.1 29.1,1.1 C27,1.1 28.2,15.5 13.1,20.7 C14.8,22.8 16.9,23.8 20.5,25.1 C17.6,28.2 12.8,31.7 6.9,31.8 C6.9,34.6 9.6,37.2 12.8,38.8 C12,40.5 9.8,42.7 3,44.7 C9,49.3 19.2,51.4 26,51.4 L26,62 C26,63.1 26.2,63 27.7,63 L30.4,63 C31.9,63 32.1,63.1 32.1,62 L32.1,51.2 C39.2,51.2 49.9,49.1 55,44.6 L55,44.6 Z" id="Christmas-tree" stroke="#fff" stroke-width="2" sketch:type="MSShapeGroup"></path>
    </g>
</svg>
